<svg xmlns="http://www.w3.org/2000/svg" width="24" height="24" fill="none" viewBox="0 0 24 24"><path fill="#0f0f0f" fill-rule="evenodd" d="m16.528 6-.058-.243c-.264-1.056-.68-2.203-1.358-3.107C14.413 1.718 13.392 1 12 1s-2.414.718-3.113 1.65c-.677.904-1.093 2.051-1.357 3.107L7.47 6h-1.6a3 3 0 0 0-2.993 2.8l-.734 11A3 3 0 0 0 5.138 23h13.724a3 3 0 0 0 2.994-3.2l-.734-11A3 3 0 0 0 18.13 6zm-9.057 8.5c.573 0 1.527-3.932 1.529-4.502a7 7 0 0 1 .007-.306A18 18 0 0 1 9.147 8h5.706A19 19 0 0 1 15 9.927V10s.471 4.5 1.471 4.5.53-4.501.53-4.501a7 7 0 0 0-.009-.378A20 20 0 0 0 16.868 8h1.26a1 1 0 0 1 .999.933l.733 11A1 1 0 0 1 18.862 21H5.138a1 1 0 0 1-.998-1.067l.733-11A1 1 0 0 1 5.871 8h1.261a21 21 0 0 0-.13 1.893L7 9.997c0 .57-.1 4.503.471 4.503M9.533 6h4.933c-.23-.847-.545-1.605-.954-2.15C13.086 3.282 12.607 3 12 3s-1.087.282-1.513.85c-.408.545-.722 1.303-.954 2.15" clip-rule="evenodd"/></svg>