<svg xmlns="http://www.w3.org/2000/svg" width="24" height="24" fill="none" viewBox="0 0 24 24"><path fill="#0f0f0f" fill-rule="evenodd" d="M3.489 6.004c-.726 1.244-.965 2.97-.519 4.754.16.641.627 1.466 1.366 2.416.725.931 1.65 1.905 2.63 2.839 1.944 1.852 4.035 3.485 5.034 4.241 1-.756 3.09-2.39 5.034-4.241.98-.934 1.905-1.908 2.63-2.839.74-.95 1.205-1.775 1.366-2.416.446-1.784.207-3.51-.519-4.754C19.803 4.79 18.621 4 17.001 4c-1.41 0-2.404 1.042-3.107 2.447a10.8 10.8 0 0 0-.865 2.505c-.112.522-.715.548-1.029.548s-.918-.031-1.028-.548a11 11 0 0 0-.154-.622 10.7 10.7 0 0 0-.712-1.883C9.403 5.042 8.41 4 7 4c-1.62 0-2.803.79-3.511 2.004M12 5.77l.106-.217C12.903 3.958 15.41 1 18 1c2.38 0 3.197 2.21 4.239 3.996 1.024 1.756 1.285 4.03.731 6.246-.262 1.05-.934 2.141-1.728 3.16-.808 1.038-1.81 2.087-2.828 3.059-2.04 1.943-4.218 3.641-5.233 4.407-.7.53-1.661.53-2.362 0-1.015-.766-3.193-2.464-5.232-4.407-1.02-.972-2.021-2.02-2.829-3.058-.793-1.02-1.466-2.11-1.728-3.16-.554-2.217-.293-4.49.731-6.247C2.803 3.21 4.121 1 6.5 1c2.59 0 4.597 2.958 5.395 4.553q.054.108.105.217" clip-rule="evenodd"/></svg>