<svg xmlns="http://www.w3.org/2000/svg" width="120" height="50" fill="none" viewBox="0 0 120 50"><path fill="#1b1b1b" fill-rule="evenodd" d="M4.872 1.187 2.6 1.063 1.663.865l-.187-.37c0-.347.234-.495.703-.495h23.493C36.68 0 44.409 3.535 48.907 10.63q3.864 6.154 3.864 14.608c0 2.942-.421 5.785-1.288 8.529-.984 2.892-2.342 5.439-4.099 7.713-1.921 2.397-4.263 4.252-6.957 5.611-2.88 1.384-6.113 2.101-9.743 2.101H.726c-.492 0-.726-.173-.726-.469 0-.321.351-.494 1.007-.494l5.739-.37c.89-.125 1.522-.397 1.827-.767l.586-.866c.21-.592.328-1.482.351-2.693V4.325c0-1.532-.82-2.472-2.412-2.843zm12.648.667-.164.99v43.53c0 .494.093.84.28.964l.938.148h3.092l7.167-.272c1.92-.222 3.56-.543 4.848-.989a13 13 0 0 0 3.56-2.075c.937-.816 1.897-1.978 2.952-3.461 1.756-2.422 3.02-5.513 3.794-9.294.468-2.471.703-4.87.703-7.168 0-2.027-.282-4.203-.867-6.551-.82-3.387-2.062-6.353-3.818-8.875-3.397-4.894-8.971-7.316-16.677-7.316h-4.755q-.808-.076-1.053.37m39.865 46.967c-.047-.297.187-.42.703-.42l1.64-.05c.89-.123 1.428-.444 1.639-.939l.304-1.78V31.27c0-.544-.187-.964-.538-1.211l-1.218-.125-1.64.47-.89-.05q-.176-.444 1.054-.815c1.944-.544 3.654-1.236 5.106-2.101a15 15 0 0 1 1.803-.964l.703-.074c.234.049.352.544.352 1.433v18.095c0 .864.187 1.483.539 1.853.42.445 1.405.667 2.927.667.539 0 .82.125.867.396 0 .223-.164.297-.445.297H57.806c-.28.002-.421-.123-.421-.32m55.276-17.798c-1.147 1.261-1.92 2.744-2.342 4.523v10.507c0 .939.305 1.606.937 2.026l1.43.271 1.498.173c.352.05.493.125.493.322l-.07.173-.398.125h-12.532c-.374 0-.585-.125-.585-.322l.351-.297 2.109-.173c.819-.148 1.335-.444 1.616-.89l.352-1.112V31.518l-.235-1.088-.397-.247c-.118-.123-.305-.197-.587-.247-.351-.024-.773.05-1.217.247l-1.194.346-.68-.173c-.117-.173-.07-.296.093-.37l1.007-.446c2.295-.716 4.146-1.458 5.435-2.223l1.592-.916.703.05.281.618v5.438c1.757-3.016 3.162-4.87 4.123-5.488.585-.37 1.147-.668 1.569-.79l.82-.075c.515-.05 1.101.124 1.756.569.891.544 1.359 1.36 1.405 2.397.047.866-.188 1.534-.703 2.052-.468.42-.937.545-1.358.42-.398-.074-.703-.247-.913-.494l-.656-.864c-.515-.792-1.007-1.04-1.592-.816-.682.195-1.384.74-2.111 1.605m-48.952-20.32c-.867 0-1.57.322-2.154.94-.633.618-.937 1.409-.891 2.324-.046.865.258 1.607.89 2.225.586.618 1.289.939 2.155.939.82 0 1.546-.322 2.13-.939.586-.618.914-1.36.914-2.225 0-.915-.328-1.706-.913-2.324s-1.312-.94-2.13-.94M76.123 30.43a11 11 0 0 1 3.162-2.965c1.125-.693 2.249-1.138 3.42-1.361l4.334-.27c1.568.073 3.021.395 4.333 1.012 3.162 1.483 5.152 4.203 5.901 8.157.773 4.005.118 7.393-1.944 10.136-1.756 2.323-4.075 3.807-7.003 4.449-3.067.717-5.925.494-8.502-.617-3.35-1.435-5.387-4.277-6.043-8.43-.586-3.93.187-7.268 2.342-10.11m13.725-1.111q-2.143-2.52-5.411-2.225c-2.107.223-3.724 1.458-4.778 3.806-.96 2.126-1.312 4.723-.96 7.787.257 3.041 1.172 5.463 2.646 7.317 1.57 1.953 3.35 2.769 5.34 2.399 2.085-.42 3.609-1.608 4.616-3.585.983-2.026 1.334-4.647 1.1-7.984-.28-3.337-1.1-5.81-2.553-7.515" clip-rule="evenodd"/><path fill="#1b1b1b" fill-rule="evenodd" d="M57.22 30.406v.247l-.515-.347v.123l.047.224h-.07v-.471h.023l.468.372v-.372h.094zm.867-.174h-.28v.174h.233v.023h-.234v.174h.281v.05h-.35v-.47h.35zm1.289-.05h.024l-.235.47h-.07l-.187-.371-.211.372h-.024c-.117-.224-.21-.372-.234-.47h.117l.14.37.212-.37h.07l.164.37.187-.37zm.655.248.047.223h-.117v-.173l-.234-.298h.117zl.188-.247h.094zm.656-.148a.43.43 0 0 1 .281-.1c.118 0 .188.05.282.1.022.025.07.073.07.148l-.07.173c-.094.05-.164.05-.282.05-.116 0-.234 0-.28-.05l-.119-.173c.001-.075.048-.123.118-.148m.47 0-.189-.05-.186.05a.17.17 0 0 0-.094.148c0 .05.046.099.094.124l.186.1c.07 0 .164-.05.188-.1.046-.025.094-.073.094-.124a.17.17 0 0 0-.094-.148m.703-.05-.024.174h.07c.117 0 .188-.05.188-.1 0-.024-.024-.073-.142-.073zm.116-.05c.118 0 .21.05.21.125l-.092.099-.118.023.281.224h-.118l-.28-.224h-.023l.024.224h-.118v-.47zm1.172 0-.304.224.304.247h-.116l-.259-.224v-.023l-.047.023.047.224h-.117v-.47h.117l-.047.223h.047l.305-.224z" clip-rule="evenodd"/></svg>